<?xml version="1.0" encoding="UTF-8" standalone="no"?>

<!-- ####################################################################

This file was generates automatically via the 
IconPacks.Browser (MIT-License). 

Visit https://github.com/MahApps/MahApps.Metro.IconPacks and 
https://github.com/MahApps/MahApps.Metro.IconPacks/blob/develop/LICENSE 
for more information.
 
~~~~~~~~~~~~~~~~~~~~~~~~~~~~~~~~~~~~~~~~~~~~~~~~~~~~~~~~~~~~~~~~~~~~~~~~~~
 
Icon-Name: 			Cookie
Iconpack:			Coolicons
Iconpack-Homepage: 	https://github.com/krystonschwarze/coolicons
Iconpack-License:	https://github.com/krystonschwarze/coolicons#license

#####################################################################-->


<svg xmlns="http://www.w3.org/2000/svg"
     width="48"
     height="48">
    <path d="M511.305 0.005c-235.15 0.26-425.713 191.13-425.971 426.667 16.773-4.749 34.114-7.172 51.543-7.211 57.655-0.427 111.823 27.614 144.831 74.961 29.51 42.686 35.745 97.327 16.613 145.58 12.233-2.185 24.633-3.299 37.060-3.328 55.243-0.413 107.676 24.362 142.487 67.328 34.065 41.696 47.386 96.631 36.207 149.332 235.26-0.766 425.353-192.411 424.589-428.049-0.764-235.644-192.098-426.044-427.358-425.28zM543.808 146.437c6.554-2.82 13.611-4.275 20.745-4.267 21.525 0.021 40.926 13.009 49.173 32.93 8.247 19.917 3.721 42.846-11.477 58.121-10.014 9.988-23.565 15.599-37.696 15.616-25.28-0.060-47.031-17.911-52.062-42.726-5.026-24.815 8.060-49.749 31.317-59.674zM294.912 218.671c8.536-3.537 17.684-5.35 26.921-5.333 28.82 0.009 54.776 17.459 65.696 44.173s4.638 57.391-15.9 77.641c-13.276 13.094-31.162 20.437-49.796 20.437-39.191-0.047-70.944-31.872-70.967-71.125 0.007-28.535 17-54.319 43.194-65.536h0.682l0.17-0.256zM696.644 325.637c28.634-12.045 61.756-4.045 81.762 19.746 20.002 23.791 22.242 57.847 5.521 84.062-5.235 8.162-12.079 15.172-20.105 20.608-22.050 14.912-50.577 16.226-73.903 3.405s-37.538-37.628-36.821-64.269c0.717-26.641 16.243-50.645 40.226-62.187h-0.512l1.276-0.555 0.853-0.341h-0.256c0.61-0.196 1.207-0.427 1.788-0.683l0.171 0.213zM511.305 497.792c-16.99 0.030-31.62-11.994-34.91-28.689-3.294-16.695 5.679-33.387 21.406-39.829 15.723-6.443 33.801-0.828 43.136 13.393 9.331 14.221 7.3 33.071-4.838 44.971-3.166 3.123-6.895 5.615-10.991 7.339l-0.768 0.341-1.148 0.427c-3.814 1.365-7.838 2.057-11.887 2.048zM671.044 675.543c-27.255 0.067-50.133-20.555-52.928-47.712s15.403-52.020 42.099-57.522c26.697-5.502 53.218 10.145 61.355 36.201s-4.753 54.050-29.824 64.766h-0.427c-6.413 2.744-13.299 4.194-20.275 4.267zM191.826 533.335c-19.597 0-35.483 15.913-35.483 35.541s15.887 35.541 35.483 35.541c19.597 0 35.483-15.912 35.483-35.541-0.023-19.619-15.896-35.518-35.483-35.541zM138.58 640.002c-29.408 0-53.247 23.878-53.247 53.333s23.839 53.333 53.247 53.333c29.407 0 53.246-23.878 53.246-53.333-0.047-29.436-23.859-53.286-53.246-53.333zM351.566 711.127c-29.408 0-53.247 23.878-53.247 53.333s23.839 53.333 53.247 53.333c29.407 0 53.246-23.878 53.246-53.333 0-29.462-23.832-53.352-53.246-53.376v0.043zM227.352 782.209c-19.591 0-35.476 15.904-35.483 35.527s15.863 35.54 35.455 35.555c19.591 0.016 35.488-15.875 35.512-35.499 0-19.636-15.88-35.56-35.484-35.584z"
          style="fill:#A52A2A;
                 stroke:none
                 stroke-width:0;
                 stroke-linecap:flat;
                 stroke-linejoin:miter;"
          transform="matrix(0.05625000083819033,0,0,-0.05625000083819033,-4.799981331824978,48.00009485319311)" />
</svg>